<svg xmlns="http://www.w3.org/2000/svg" width="25" height="24" viewBox="0 0 25 24">
  <path d="M.304 12c0-6.627 5.373-12 12-12s12 5.373 12 12c0 6.628-5.373 12-12 12s-12-5.372-12-12" fill="#165196"/>
  <path transform="scale(.043) translate(65, 55)" fill="#fff" fill-rule="evenodd" d="M299.817 44.264c7.569-5.321 17.729-8.346 28.609-6.4 7.479 1.338 13.424 4.58 18.258 9.035 7.214 6.649 11.979 15.999 12.233 27.292.499 22.133-16.917 39.711-40.654 38.208-11.318-.716-19.489-5.664-25.975-13.363-4.363-5.181-7.109-10.312-8.47-18.634-2.612-15.985 6.452-29.426 15.999-36.138zM109.34 217.991c14.626-13.856 32.161-24.429 55.148-29.175 1.534-.316 3.369-.188 4.706-.752 1.543-.652 4.108-4.602 5.082-5.646 17.673-18.982 34.038-38.667 51.196-57.972-10.198-6.364-20.875-12.252-31.433-18.257-12.37 10.319-23.871 21.479-36.326 32.374-5.657 4.948-15.165 10.418-25.41 6.211-8.557-3.513-15.057-12.045-14.304-23.527.628-9.595 8.002-14.739 14.116-20.328 12.522-11.449 25.411-23.192 38.396-34.445 4.452-3.856 8.609-8.4 15.435-9.976.802-.185 2.08.116 2.635-.941.288.916 2.936.206 4.894.377 5.782.504 10.736 4.083 15.434 6.776 23.316 13.362 47.015 27.078 70.582 40.467 4.574 2.599 9.273 5.373 13.929 8.282 4.675 2.924 9.979 4.966 14.116 8.093 8.295 6.271 12.083 20.271 7.34 31.057-2.927 6.659-8.819 11.796-13.552 17.316-10.895 12.71-22.68 25.843-33.879 38.773 23.524-.947 50.077-2.709 72.841-4.517 3.396.49 7.315-.235 11.482.564 11.157 2.143 19.149 11.679 17.88 25.598-3.065 33.617-5.544 69.509-8.282 105.027-.75 9.749-1.192 16.809-6.211 22.587-5.236 6.025-15.641 10.39-25.221 6.399-7.929-3.305-14.661-10.555-14.494-21.27.081-5.145.971-10.818 1.318-16.375 1.528-24.485 4.284-51.931 5.835-75.664-8.874.014-20.349 1.24-29.928 1.506 8.887 18.267 14.441 45.366 9.599 72.088-4.277 23.608-15.495 43.49-29.549 57.406-9.928-9.458-19.488-19.286-29.363-28.798 7.571-8.275 14.315-19.437 17.316-31.997 3.063-12.814 2.794-26.058-.94-38.773-10.455-30.812-34.41-52.358-73.406-53.077-9.432-.174-19.531 2.795-27.104 6.21-8.044 3.63-14.584 7.909-20.892 13.176-9.824-9.438-19.096-19.427-28.986-28.797zM229.987 362.92c7.847 6.831 15.138 14.572 22.587 22.021 2.449 2.45 5.354 4.478 7.153 7.341-19.905 15.379-47.352 26.005-80.747 23.904-12.206-.768-23.082-4.09-32.938-7.529-3.02-1.054-5.926-2.636-8.658-3.951-6.062-2.923-12.049-6.073-17.128-9.788-5.209-3.812-9.731-8.247-14.305-12.611-16.981-16.206-30.782-42.661-32.75-72.653-.955-14.557 1.035-31.216 5.458-44.23 4.511-13.272 10.954-24.095 18.446-34.445 7.558 6.623 14.521 14.112 21.834 21.27 2.5 2.447 5.179 4.847 7.34 7.529.987.967-.851 2.699-1.505 3.765-5.525 8.976-9.613 20.43-10.54 33.88-1.083 15.705 3.326 30.263 9.787 41.029 6.092 10.155 14.549 19.32 25.221 25.976 10.588 6.603 24.173 11.311 38.962 11.293 17.27-.022 30.648-5.655 41.783-12.801z" clip-rule="evenodd"/>
</svg>